<svg width="240" height="48" viewBox="0 0 240 48" fill="none" xmlns="http://www.w3.org/2000/svg">
  <rect width="48" height="48" rx="12" fill="#2563EB"/>
  <path d="M14 32V16H24.4C30.1 16 34 19.1 34 24.2C34 29.1 30.2 32 24.3 32H14ZM20 27H24C26.5 27 28 25.9 28 24.1C28 22.3 26.5 21 24 21H20V27Z" fill="white"/>
  <path d="M52 15H62.3L71 36L79.7 15H90V41H83V25.8L76.4 41H65.6L59 25.8V41H52V15Z" fill="#0F172A"/>
  <path d="M96 41V15H115V20.8H103V25.3H114.4V30.9H103V35.2H115.4V41H96Z" fill="#0F172A"/>
  <path d="M121 41V15H128L140 29.5V15H147V41H140.7L128 25.8V41H121Z" fill="#0F172A"/>
  <path d="M154 41V20.9H146.5V15H168.5V20.9H161V41H154Z" fill="#0F172A"/>
  <path d="M171 41L181.1 15H189.6L199.7 41H192.1L190.2 35.7H180.3L178.4 41H171ZM182.3 30.4H188.2L185.3 22L182.3 30.4Z" fill="#0F172A"/>
  <path d="M203 41V15H210V35H222V41H203Z" fill="#0F172A"/>
</svg>
